<mxfile host="app.diagrams.net" modified="2023-02-23T12:13:16.167Z" agent="5.0 (Windows)" etag="oQk7x93oY_7NBCG_m3Gk" version="20.8.20" type="github">
  <diagram id="C5RBs43oDa-KdzZeNtuy" name="Page-1">
    <mxGraphModel dx="1434" dy="782" grid="1" gridSize="10" guides="1" tooltips="1" connect="1" arrows="1" fold="1" page="1" pageScale="1" pageWidth="827" pageHeight="1169" math="0" shadow="0">
      <root>
        <mxCell id="WIyWlLk6GJQsqaUBKTNV-0" />
        <mxCell id="WIyWlLk6GJQsqaUBKTNV-1" parent="WIyWlLk6GJQsqaUBKTNV-0" />
        <mxCell id="6ch8YeXnsbqJXbQkMS56-19" style="edgeStyle=orthogonalEdgeStyle;rounded=0;orthogonalLoop=1;jettySize=auto;html=1;exitX=0.5;exitY=1;exitDx=0;exitDy=0;entryX=0.5;entryY=0;entryDx=0;entryDy=0;" edge="1" parent="WIyWlLk6GJQsqaUBKTNV-1" source="6ch8YeXnsbqJXbQkMS56-0" target="6ch8YeXnsbqJXbQkMS56-1">
          <mxGeometry relative="1" as="geometry" />
        </mxCell>
        <mxCell id="6ch8YeXnsbqJXbQkMS56-0" value="&lt;div&gt;start&lt;/div&gt;" style="ellipse;whiteSpace=wrap;html=1;" vertex="1" parent="WIyWlLk6GJQsqaUBKTNV-1">
          <mxGeometry x="160" y="40" width="120" height="80" as="geometry" />
        </mxCell>
        <mxCell id="6ch8YeXnsbqJXbQkMS56-1" value="pobranie a" style="rounded=0;whiteSpace=wrap;html=1;" vertex="1" parent="WIyWlLk6GJQsqaUBKTNV-1">
          <mxGeometry x="160" y="170" width="120" height="60" as="geometry" />
        </mxCell>
        <mxCell id="6ch8YeXnsbqJXbQkMS56-2" style="edgeStyle=orthogonalEdgeStyle;rounded=0;orthogonalLoop=1;jettySize=auto;html=1;entryX=0.5;entryY=0;entryDx=0;entryDy=0;" edge="1" parent="WIyWlLk6GJQsqaUBKTNV-1" source="6ch8YeXnsbqJXbQkMS56-1" target="6ch8YeXnsbqJXbQkMS56-4">
          <mxGeometry relative="1" as="geometry">
            <mxPoint x="350" y="260" as="targetPoint" />
            <Array as="points" />
          </mxGeometry>
        </mxCell>
        <mxCell id="6ch8YeXnsbqJXbQkMS56-11" style="edgeStyle=orthogonalEdgeStyle;rounded=0;orthogonalLoop=1;jettySize=auto;html=1;exitX=1;exitY=0.5;exitDx=0;exitDy=0;entryX=0.5;entryY=0;entryDx=0;entryDy=0;" edge="1" parent="WIyWlLk6GJQsqaUBKTNV-1" source="6ch8YeXnsbqJXbQkMS56-4" target="6ch8YeXnsbqJXbQkMS56-10">
          <mxGeometry relative="1" as="geometry" />
        </mxCell>
        <mxCell id="6ch8YeXnsbqJXbQkMS56-12" value="&lt;div&gt;tak&lt;/div&gt;" style="edgeLabel;html=1;align=center;verticalAlign=middle;resizable=0;points=[];" vertex="1" connectable="0" parent="6ch8YeXnsbqJXbQkMS56-11">
          <mxGeometry x="0.3263" y="2" relative="1" as="geometry">
            <mxPoint as="offset" />
          </mxGeometry>
        </mxCell>
        <mxCell id="6ch8YeXnsbqJXbQkMS56-14" style="edgeStyle=orthogonalEdgeStyle;rounded=0;orthogonalLoop=1;jettySize=auto;html=1;exitX=0;exitY=0.5;exitDx=0;exitDy=0;entryX=0.5;entryY=0;entryDx=0;entryDy=0;" edge="1" parent="WIyWlLk6GJQsqaUBKTNV-1" source="6ch8YeXnsbqJXbQkMS56-4" target="6ch8YeXnsbqJXbQkMS56-13">
          <mxGeometry relative="1" as="geometry" />
        </mxCell>
        <mxCell id="6ch8YeXnsbqJXbQkMS56-15" value="nie" style="edgeLabel;html=1;align=center;verticalAlign=middle;resizable=0;points=[];" vertex="1" connectable="0" parent="6ch8YeXnsbqJXbQkMS56-14">
          <mxGeometry x="0.4316" relative="1" as="geometry">
            <mxPoint as="offset" />
          </mxGeometry>
        </mxCell>
        <mxCell id="6ch8YeXnsbqJXbQkMS56-4" value="a&amp;gt;0" style="rhombus;whiteSpace=wrap;html=1;" vertex="1" parent="WIyWlLk6GJQsqaUBKTNV-1">
          <mxGeometry x="170" y="260" width="80" height="80" as="geometry" />
        </mxCell>
        <mxCell id="6ch8YeXnsbqJXbQkMS56-18" style="edgeStyle=orthogonalEdgeStyle;rounded=0;orthogonalLoop=1;jettySize=auto;html=1;exitX=1;exitY=1;exitDx=0;exitDy=0;" edge="1" parent="WIyWlLk6GJQsqaUBKTNV-1" source="6ch8YeXnsbqJXbQkMS56-10" target="6ch8YeXnsbqJXbQkMS56-17">
          <mxGeometry relative="1" as="geometry" />
        </mxCell>
        <mxCell id="6ch8YeXnsbqJXbQkMS56-10" value="wyswietl a" style="rounded=0;whiteSpace=wrap;html=1;" vertex="1" parent="WIyWlLk6GJQsqaUBKTNV-1">
          <mxGeometry x="260" y="310" width="90" height="50" as="geometry" />
        </mxCell>
        <mxCell id="6ch8YeXnsbqJXbQkMS56-16" style="edgeStyle=orthogonalEdgeStyle;rounded=0;orthogonalLoop=1;jettySize=auto;html=1;exitX=1;exitY=1;exitDx=0;exitDy=0;entryX=0;entryY=1;entryDx=0;entryDy=0;" edge="1" parent="WIyWlLk6GJQsqaUBKTNV-1" source="6ch8YeXnsbqJXbQkMS56-13" target="6ch8YeXnsbqJXbQkMS56-10">
          <mxGeometry relative="1" as="geometry" />
        </mxCell>
        <mxCell id="6ch8YeXnsbqJXbQkMS56-13" value="a*(-1)" style="rounded=0;whiteSpace=wrap;html=1;" vertex="1" parent="WIyWlLk6GJQsqaUBKTNV-1">
          <mxGeometry x="70" y="300" width="90" height="50" as="geometry" />
        </mxCell>
        <mxCell id="6ch8YeXnsbqJXbQkMS56-17" value="stop" style="ellipse;whiteSpace=wrap;html=1;" vertex="1" parent="WIyWlLk6GJQsqaUBKTNV-1">
          <mxGeometry x="370" y="370" width="120" height="80" as="geometry" />
        </mxCell>
      </root>
    </mxGraphModel>
  </diagram>
</mxfile>
